<mxfile host="app.diagrams.net" modified="2022-07-22T04:40:49.109Z" agent="5.0 (Windows NT 10.0; Win64; x64) AppleWebKit/537.36 (KHTML, like Gecko) Chrome/103.0.0.0 Safari/537.36" etag="GnWLu2yJi7Tnq3Etm3cT" version="16.6.1" type="github" pages="2">
  <diagram id="QUmrNaxIJSpwvkwE0ti-" name="Page-1">
    <mxGraphModel dx="1108" dy="450" grid="1" gridSize="10" guides="1" tooltips="1" connect="1" arrows="1" fold="1" page="1" pageScale="1" pageWidth="827" pageHeight="1169" math="0" shadow="0">
      <root>
        <mxCell id="0" />
        <mxCell id="1" parent="0" />
        <mxCell id="OPoX8AFaIU6iThaOG1Mi-2" value="Auctions List" style="text;html=1;strokeColor=#d79b00;fillColor=#ffe6cc;align=center;verticalAlign=middle;whiteSpace=wrap;rounded=0;fontSize=14;fontStyle=1" vertex="1" parent="1">
          <mxGeometry x="80" y="50" width="140" height="50" as="geometry" />
        </mxCell>
        <mxCell id="OPoX8AFaIU6iThaOG1Mi-3" value="Active" style="text;html=1;strokeColor=none;fillColor=none;align=center;verticalAlign=middle;whiteSpace=wrap;rounded=0;fontStyle=1" vertex="1" parent="1">
          <mxGeometry x="240" y="50" width="60" height="30" as="geometry" />
        </mxCell>
        <mxCell id="OPoX8AFaIU6iThaOG1Mi-4" value="Finished" style="text;html=1;strokeColor=none;fillColor=none;align=center;verticalAlign=middle;whiteSpace=wrap;rounded=0;fontStyle=1" vertex="1" parent="1">
          <mxGeometry x="310" y="50" width="60" height="30" as="geometry" />
        </mxCell>
        <mxCell id="OPoX8AFaIU6iThaOG1Mi-6" value="Vendors" style="text;html=1;strokeColor=#A50040;fillColor=#d80073;align=center;verticalAlign=middle;whiteSpace=wrap;rounded=0;fontColor=#ffffff;fontSize=14;fontStyle=1" vertex="1" parent="1">
          <mxGeometry x="670" y="50" width="130" height="40" as="geometry" />
        </mxCell>
        <mxCell id="OPoX8AFaIU6iThaOG1Mi-7" value="Laptop Requirements" style="text;html=1;strokeColor=none;fillColor=none;align=center;verticalAlign=middle;whiteSpace=wrap;rounded=0;fontStyle=1" vertex="1" parent="1">
          <mxGeometry x="80" y="120" width="150" height="30" as="geometry" />
        </mxCell>
        <mxCell id="OPoX8AFaIU6iThaOG1Mi-8" value="Sports Utilities" style="text;html=1;strokeColor=none;fillColor=none;align=center;verticalAlign=middle;whiteSpace=wrap;rounded=0;fontStyle=1" vertex="1" parent="1">
          <mxGeometry x="80" y="245" width="110" height="30" as="geometry" />
        </mxCell>
        <mxCell id="OPoX8AFaIU6iThaOG1Mi-9" value="Painting Auction" style="text;html=1;strokeColor=none;fillColor=none;align=center;verticalAlign=middle;whiteSpace=wrap;rounded=0;fontStyle=1" vertex="1" parent="1">
          <mxGeometry x="80" y="342" width="130" height="30" as="geometry" />
        </mxCell>
        <mxCell id="OPoX8AFaIU6iThaOG1Mi-11" value="" style="endArrow=none;html=1;rounded=0;fontSize=14;exitX=0.25;exitY=1;exitDx=0;exitDy=0;fillColor=#d80073;strokeColor=#A50040;" edge="1" parent="1">
          <mxGeometry width="50" height="50" relative="1" as="geometry">
            <mxPoint x="248" y="80" as="sourcePoint" />
            <mxPoint x="290" y="80" as="targetPoint" />
          </mxGeometry>
        </mxCell>
        <mxCell id="OPoX8AFaIU6iThaOG1Mi-12" value="Starts At" style="text;html=1;strokeColor=none;fillColor=none;align=center;verticalAlign=middle;whiteSpace=wrap;rounded=0;fontSize=14;" vertex="1" parent="1">
          <mxGeometry x="260" y="120" width="60" height="30" as="geometry" />
        </mxCell>
        <mxCell id="OPoX8AFaIU6iThaOG1Mi-13" value="Ends At" style="text;html=1;strokeColor=none;fillColor=none;align=center;verticalAlign=middle;whiteSpace=wrap;rounded=0;fontSize=14;" vertex="1" parent="1">
          <mxGeometry x="340" y="120" width="60" height="30" as="geometry" />
        </mxCell>
        <mxCell id="OPoX8AFaIU6iThaOG1Mi-14" value="Current Bid" style="text;html=1;strokeColor=none;fillColor=none;align=center;verticalAlign=middle;whiteSpace=wrap;rounded=0;fontSize=14;" vertex="1" parent="1">
          <mxGeometry x="430" y="120" width="80" height="30" as="geometry" />
        </mxCell>
        <mxCell id="OPoX8AFaIU6iThaOG1Mi-15" value="Start Price" style="text;html=1;strokeColor=none;fillColor=none;align=center;verticalAlign=middle;whiteSpace=wrap;rounded=0;fontSize=11;" vertex="1" parent="1">
          <mxGeometry x="360" y="163" width="70" height="30" as="geometry" />
        </mxCell>
        <mxCell id="OPoX8AFaIU6iThaOG1Mi-16" value="Description" style="text;html=1;strokeColor=none;fillColor=none;align=center;verticalAlign=middle;whiteSpace=wrap;rounded=0;fontSize=11;" vertex="1" parent="1">
          <mxGeometry x="290" y="163" width="60" height="30" as="geometry" />
        </mxCell>
        <mxCell id="OPoX8AFaIU6iThaOG1Mi-17" value="when click on Auction&amp;nbsp;" style="html=1;shadow=0;dashed=0;align=center;verticalAlign=middle;shape=mxgraph.arrows2.arrow;dy=0;dx=10;notch=0;fontSize=11;" vertex="1" parent="1">
          <mxGeometry x="140" y="163" width="150" height="30" as="geometry" />
        </mxCell>
        <mxCell id="OPoX8AFaIU6iThaOG1Mi-18" value="Category" style="text;html=1;strokeColor=none;fillColor=none;align=center;verticalAlign=middle;whiteSpace=wrap;rounded=0;fontSize=11;" vertex="1" parent="1">
          <mxGeometry x="430" y="163" width="60" height="30" as="geometry" />
        </mxCell>
        <mxCell id="OPoX8AFaIU6iThaOG1Mi-19" value="Delivery Type" style="text;html=1;strokeColor=none;fillColor=none;align=center;verticalAlign=middle;whiteSpace=wrap;rounded=0;fontSize=11;" vertex="1" parent="1">
          <mxGeometry x="490" y="163" width="70" height="30" as="geometry" />
        </mxCell>
        <mxCell id="OPoX8AFaIU6iThaOG1Mi-20" value="Bid step" style="text;html=1;strokeColor=none;fillColor=none;align=center;verticalAlign=middle;whiteSpace=wrap;rounded=0;fontSize=11;" vertex="1" parent="1">
          <mxGeometry x="560" y="163" width="60" height="30" as="geometry" />
        </mxCell>
        <mxCell id="OPoX8AFaIU6iThaOG1Mi-21" value="" style="endArrow=none;html=1;rounded=0;fontSize=11;" edge="1" parent="1">
          <mxGeometry width="50" height="50" relative="1" as="geometry">
            <mxPoint x="640" y="505" as="sourcePoint" />
            <mxPoint x="640" y="45" as="targetPoint" />
          </mxGeometry>
        </mxCell>
        <mxCell id="OPoX8AFaIU6iThaOG1Mi-22" value="Bid" style="labelPosition=center;verticalLabelPosition=middle;align=center;html=1;shape=mxgraph.basic.shaded_button;dx=10;fillColor=#E6E6E6;strokeColor=none;fontSize=15;" vertex="1" parent="1">
          <mxGeometry x="500" y="200" width="100" height="40" as="geometry" />
        </mxCell>
        <mxCell id="OPoX8AFaIU6iThaOG1Mi-23" value="" style="shape=image;html=1;verticalAlign=top;verticalLabelPosition=bottom;labelBackgroundColor=#ffffff;imageAspect=0;aspect=fixed;image=https://cdn4.iconfinder.com/data/icons/ios-web-user-interface-multi-circle-flat-vol-4/512/Bullet_bullets_items_list_menu_unjustified-128.png;fontSize=14;" vertex="1" parent="1">
          <mxGeometry x="50" y="120" width="30" height="30" as="geometry" />
        </mxCell>
        <mxCell id="OPoX8AFaIU6iThaOG1Mi-25" value="" style="shape=image;html=1;verticalAlign=top;verticalLabelPosition=bottom;labelBackgroundColor=#ffffff;imageAspect=0;aspect=fixed;image=https://cdn4.iconfinder.com/data/icons/ios-web-user-interface-multi-circle-flat-vol-4/512/Bullet_bullets_items_list_menu_unjustified-128.png;fontSize=14;" vertex="1" parent="1">
          <mxGeometry x="50" y="245" width="30" height="30" as="geometry" />
        </mxCell>
        <mxCell id="OPoX8AFaIU6iThaOG1Mi-26" value="" style="shape=image;html=1;verticalAlign=top;verticalLabelPosition=bottom;labelBackgroundColor=#ffffff;imageAspect=0;aspect=fixed;image=https://cdn4.iconfinder.com/data/icons/ios-web-user-interface-multi-circle-flat-vol-4/512/Bullet_bullets_items_list_menu_unjustified-128.png;fontSize=14;" vertex="1" parent="1">
          <mxGeometry x="50" y="342" width="30" height="30" as="geometry" />
        </mxCell>
        <mxCell id="OPoX8AFaIU6iThaOG1Mi-27" value="" style="endArrow=none;html=1;rounded=0;fontSize=14;" edge="1" parent="1">
          <mxGeometry width="50" height="50" relative="1" as="geometry">
            <mxPoint x="20" y="45" as="sourcePoint" />
            <mxPoint x="810" y="45" as="targetPoint" />
          </mxGeometry>
        </mxCell>
        <mxCell id="OPoX8AFaIU6iThaOG1Mi-28" value="Pratik&lt;br&gt;(Electronics)" style="label;whiteSpace=wrap;html=1;image=img/clipart/Gear_128x128.png;fontSize=14;" vertex="1" parent="1">
          <mxGeometry x="650" y="6" width="160" height="30" as="geometry" />
        </mxCell>
      </root>
    </mxGraphModel>
  </diagram>
  <diagram name="Page-2" id="FhoY_bRI6hN1zfeGIvQD">
    <mxGraphModel dx="1108" dy="450" grid="1" gridSize="10" guides="1" tooltips="1" connect="1" arrows="1" fold="1" page="1" pageScale="1" pageWidth="827" pageHeight="1169" math="0" shadow="0">
      <root>
        <mxCell id="esXycdXrPblHGuvkgUnI-0" />
        <mxCell id="esXycdXrPblHGuvkgUnI-1" parent="esXycdXrPblHGuvkgUnI-0" />
        <mxCell id="esXycdXrPblHGuvkgUnI-2" value="Auctions List" style="text;html=1;strokeColor=#d79b00;fillColor=#ffe6cc;align=center;verticalAlign=middle;whiteSpace=wrap;rounded=0;fontSize=14;fontStyle=1" vertex="1" parent="esXycdXrPblHGuvkgUnI-1">
          <mxGeometry x="80" y="50" width="140" height="50" as="geometry" />
        </mxCell>
        <mxCell id="esXycdXrPblHGuvkgUnI-3" value="Active" style="text;html=1;strokeColor=none;fillColor=none;align=center;verticalAlign=middle;whiteSpace=wrap;rounded=0;fontStyle=1" vertex="1" parent="esXycdXrPblHGuvkgUnI-1">
          <mxGeometry x="240" y="50" width="60" height="30" as="geometry" />
        </mxCell>
        <mxCell id="esXycdXrPblHGuvkgUnI-4" value="Finished" style="text;html=1;strokeColor=none;fillColor=none;align=center;verticalAlign=middle;whiteSpace=wrap;rounded=0;fontStyle=1" vertex="1" parent="esXycdXrPblHGuvkgUnI-1">
          <mxGeometry x="310" y="50" width="60" height="30" as="geometry" />
        </mxCell>
        <mxCell id="esXycdXrPblHGuvkgUnI-5" value="Vendors" style="text;html=1;strokeColor=#A50040;fillColor=#d80073;align=center;verticalAlign=middle;whiteSpace=wrap;rounded=0;fontColor=#ffffff;fontSize=14;fontStyle=1" vertex="1" parent="esXycdXrPblHGuvkgUnI-1">
          <mxGeometry x="670" y="50" width="130" height="40" as="geometry" />
        </mxCell>
        <mxCell id="esXycdXrPblHGuvkgUnI-6" value="Laptop Requirements" style="text;html=1;strokeColor=none;fillColor=none;align=center;verticalAlign=middle;whiteSpace=wrap;rounded=0;fontStyle=1" vertex="1" parent="esXycdXrPblHGuvkgUnI-1">
          <mxGeometry x="80" y="120" width="150" height="30" as="geometry" />
        </mxCell>
        <mxCell id="esXycdXrPblHGuvkgUnI-7" value="Sports Utilities" style="text;html=1;strokeColor=none;fillColor=none;align=center;verticalAlign=middle;whiteSpace=wrap;rounded=0;fontStyle=1" vertex="1" parent="esXycdXrPblHGuvkgUnI-1">
          <mxGeometry x="80" y="245" width="110" height="30" as="geometry" />
        </mxCell>
        <mxCell id="esXycdXrPblHGuvkgUnI-8" value="Painting Auction" style="text;html=1;strokeColor=none;fillColor=none;align=center;verticalAlign=middle;whiteSpace=wrap;rounded=0;fontStyle=1" vertex="1" parent="esXycdXrPblHGuvkgUnI-1">
          <mxGeometry x="80" y="342" width="130" height="30" as="geometry" />
        </mxCell>
        <mxCell id="esXycdXrPblHGuvkgUnI-9" value="" style="endArrow=none;html=1;rounded=0;fontSize=14;exitX=0.25;exitY=1;exitDx=0;exitDy=0;fillColor=#d80073;strokeColor=#A50040;" edge="1" parent="esXycdXrPblHGuvkgUnI-1">
          <mxGeometry width="50" height="50" relative="1" as="geometry">
            <mxPoint x="248" y="80" as="sourcePoint" />
            <mxPoint x="290" y="80" as="targetPoint" />
          </mxGeometry>
        </mxCell>
        <mxCell id="esXycdXrPblHGuvkgUnI-10" value="Starts At" style="text;html=1;strokeColor=none;fillColor=none;align=center;verticalAlign=middle;whiteSpace=wrap;rounded=0;fontSize=14;" vertex="1" parent="esXycdXrPblHGuvkgUnI-1">
          <mxGeometry x="260" y="120" width="60" height="30" as="geometry" />
        </mxCell>
        <mxCell id="esXycdXrPblHGuvkgUnI-11" value="Ends At" style="text;html=1;strokeColor=none;fillColor=none;align=center;verticalAlign=middle;whiteSpace=wrap;rounded=0;fontSize=14;" vertex="1" parent="esXycdXrPblHGuvkgUnI-1">
          <mxGeometry x="340" y="120" width="60" height="30" as="geometry" />
        </mxCell>
        <mxCell id="esXycdXrPblHGuvkgUnI-12" value="Current Bid" style="text;html=1;strokeColor=none;fillColor=none;align=center;verticalAlign=middle;whiteSpace=wrap;rounded=0;fontSize=14;" vertex="1" parent="esXycdXrPblHGuvkgUnI-1">
          <mxGeometry x="430" y="120" width="80" height="30" as="geometry" />
        </mxCell>
        <mxCell id="esXycdXrPblHGuvkgUnI-13" value="Start Price" style="text;html=1;strokeColor=none;fillColor=none;align=center;verticalAlign=middle;whiteSpace=wrap;rounded=0;fontSize=11;" vertex="1" parent="esXycdXrPblHGuvkgUnI-1">
          <mxGeometry x="360" y="163" width="70" height="30" as="geometry" />
        </mxCell>
        <mxCell id="esXycdXrPblHGuvkgUnI-14" value="Description" style="text;html=1;strokeColor=none;fillColor=none;align=center;verticalAlign=middle;whiteSpace=wrap;rounded=0;fontSize=11;" vertex="1" parent="esXycdXrPblHGuvkgUnI-1">
          <mxGeometry x="290" y="163" width="60" height="30" as="geometry" />
        </mxCell>
        <mxCell id="esXycdXrPblHGuvkgUnI-15" value="when click on Auction&amp;nbsp;" style="html=1;shadow=0;dashed=0;align=center;verticalAlign=middle;shape=mxgraph.arrows2.arrow;dy=0;dx=10;notch=0;fontSize=11;" vertex="1" parent="esXycdXrPblHGuvkgUnI-1">
          <mxGeometry x="140" y="163" width="150" height="30" as="geometry" />
        </mxCell>
        <mxCell id="esXycdXrPblHGuvkgUnI-16" value="Category" style="text;html=1;strokeColor=none;fillColor=none;align=center;verticalAlign=middle;whiteSpace=wrap;rounded=0;fontSize=11;" vertex="1" parent="esXycdXrPblHGuvkgUnI-1">
          <mxGeometry x="430" y="163" width="60" height="30" as="geometry" />
        </mxCell>
        <mxCell id="esXycdXrPblHGuvkgUnI-17" value="Delivery Type" style="text;html=1;strokeColor=none;fillColor=none;align=center;verticalAlign=middle;whiteSpace=wrap;rounded=0;fontSize=11;" vertex="1" parent="esXycdXrPblHGuvkgUnI-1">
          <mxGeometry x="490" y="163" width="70" height="30" as="geometry" />
        </mxCell>
        <mxCell id="esXycdXrPblHGuvkgUnI-18" value="Bid step" style="text;html=1;strokeColor=none;fillColor=none;align=center;verticalAlign=middle;whiteSpace=wrap;rounded=0;fontSize=11;" vertex="1" parent="esXycdXrPblHGuvkgUnI-1">
          <mxGeometry x="560" y="163" width="60" height="30" as="geometry" />
        </mxCell>
        <mxCell id="esXycdXrPblHGuvkgUnI-19" value="" style="endArrow=none;html=1;rounded=0;fontSize=11;" edge="1" parent="esXycdXrPblHGuvkgUnI-1">
          <mxGeometry width="50" height="50" relative="1" as="geometry">
            <mxPoint x="640" y="505" as="sourcePoint" />
            <mxPoint x="640" y="45" as="targetPoint" />
          </mxGeometry>
        </mxCell>
        <mxCell id="esXycdXrPblHGuvkgUnI-21" value="" style="shape=image;html=1;verticalAlign=top;verticalLabelPosition=bottom;labelBackgroundColor=#ffffff;imageAspect=0;aspect=fixed;image=https://cdn4.iconfinder.com/data/icons/ios-web-user-interface-multi-circle-flat-vol-4/512/Bullet_bullets_items_list_menu_unjustified-128.png;fontSize=14;" vertex="1" parent="esXycdXrPblHGuvkgUnI-1">
          <mxGeometry x="50" y="120" width="30" height="30" as="geometry" />
        </mxCell>
        <mxCell id="esXycdXrPblHGuvkgUnI-22" value="" style="shape=image;html=1;verticalAlign=top;verticalLabelPosition=bottom;labelBackgroundColor=#ffffff;imageAspect=0;aspect=fixed;image=https://cdn4.iconfinder.com/data/icons/ios-web-user-interface-multi-circle-flat-vol-4/512/Bullet_bullets_items_list_menu_unjustified-128.png;fontSize=14;" vertex="1" parent="esXycdXrPblHGuvkgUnI-1">
          <mxGeometry x="50" y="245" width="30" height="30" as="geometry" />
        </mxCell>
        <mxCell id="esXycdXrPblHGuvkgUnI-23" value="" style="shape=image;html=1;verticalAlign=top;verticalLabelPosition=bottom;labelBackgroundColor=#ffffff;imageAspect=0;aspect=fixed;image=https://cdn4.iconfinder.com/data/icons/ios-web-user-interface-multi-circle-flat-vol-4/512/Bullet_bullets_items_list_menu_unjustified-128.png;fontSize=14;" vertex="1" parent="esXycdXrPblHGuvkgUnI-1">
          <mxGeometry x="50" y="342" width="30" height="30" as="geometry" />
        </mxCell>
        <mxCell id="esXycdXrPblHGuvkgUnI-24" value="" style="endArrow=none;html=1;rounded=0;fontSize=14;" edge="1" parent="esXycdXrPblHGuvkgUnI-1">
          <mxGeometry width="50" height="50" relative="1" as="geometry">
            <mxPoint x="20" y="45" as="sourcePoint" />
            <mxPoint x="810" y="45" as="targetPoint" />
          </mxGeometry>
        </mxCell>
        <mxCell id="esXycdXrPblHGuvkgUnI-25" value="Admin" style="label;whiteSpace=wrap;html=1;image=img/clipart/Gear_128x128.png;fontSize=14;" vertex="1" parent="esXycdXrPblHGuvkgUnI-1">
          <mxGeometry x="640" y="6" width="160" height="30" as="geometry" />
        </mxCell>
        <mxCell id="KlVxBdfIRGBqD3L2uaC5-0" value="Pratik" style="text;html=1;align=center;verticalAlign=middle;resizable=0;points=[];autosize=1;strokeColor=none;fillColor=none;fontSize=14;" vertex="1" parent="esXycdXrPblHGuvkgUnI-1">
          <mxGeometry x="680" y="120" width="50" height="20" as="geometry" />
        </mxCell>
        <mxCell id="KlVxBdfIRGBqD3L2uaC5-1" value="Abhijit" style="text;html=1;align=center;verticalAlign=middle;resizable=0;points=[];autosize=1;strokeColor=none;fillColor=none;fontSize=14;" vertex="1" parent="esXycdXrPblHGuvkgUnI-1">
          <mxGeometry x="680" y="158" width="50" height="20" as="geometry" />
        </mxCell>
        <mxCell id="KlVxBdfIRGBqD3L2uaC5-2" value="Abhishek" style="text;html=1;align=center;verticalAlign=middle;resizable=0;points=[];autosize=1;strokeColor=none;fillColor=none;fontSize=14;" vertex="1" parent="esXycdXrPblHGuvkgUnI-1">
          <mxGeometry x="680" y="195" width="70" height="20" as="geometry" />
        </mxCell>
        <mxCell id="9XhmMKuScYcgZ-HEILA1-0" value="Buyout Price" style="text;html=1;align=center;verticalAlign=middle;resizable=0;points=[];autosize=1;strokeColor=none;fillColor=none;fontSize=11;" vertex="1" parent="esXycdXrPblHGuvkgUnI-1">
          <mxGeometry x="360" y="193" width="80" height="20" as="geometry" />
        </mxCell>
      </root>
    </mxGraphModel>
  </diagram>
</mxfile>
